HIERARCHY
ROOT RootJoint
{
    OFFSET   0.000000   0.000000   0.000000
    CHANNELS 6 Xposition Yposition Zposition Xrotation Yrotation Zrotation
    JOINT pelvis_lowerback
    {
        OFFSET   0.000000   0.093605   0.000000
        CHANNELS 3 Xrotation Yrotation Zrotation
        JOINT lowerback_torso
        {
            OFFSET   0.000000   0.100000   0.000000
            CHANNELS 3 Xrotation Yrotation Zrotation
            JOINT torso_head
            {
                OFFSET   0.000000   0.282350   0.000000
                CHANNELS 3 Xrotation Yrotation Zrotation
                End Site
                {
                    OFFSET   0.000000   0.192650   0.000000
                }
            }
            JOINT rTorso_Clavicle
            {
                OFFSET  -0.001000   0.157500   0.000000
                CHANNELS 3 Xrotation Yrotation Zrotation
                JOINT rShoulder
                {
                    OFFSET  -0.117647   0.000000   0.000000
                    CHANNELS 3 Xrotation Yrotation Zrotation
                    JOINT rElbow
                    {
                        OFFSET  -0.245000   0.000000   0.000000
                        CHANNELS 3 Xrotation Yrotation Zrotation
                        JOINT rWrist
                        {
                            OFFSET  -0.240000   0.000000   0.000000
                            CHANNELS 3 Xrotation Yrotation Zrotation
                            End Site
                            {
                                OFFSET  -0.116353  -0.002500   0.000000
                            }
                        }
                    }
                }
            }
            JOINT lTorso_Clavicle
            {
                OFFSET   0.001000   0.157500   0.000000
                CHANNELS 3 Xrotation Yrotation Zrotation
                JOINT lShoulder
                {
                    OFFSET   0.117647   0.000000   0.000000
                    CHANNELS 3 Xrotation Yrotation Zrotation
                    JOINT lElbow
                    {
                        OFFSET   0.245000   0.000000   0.000000
                        CHANNELS 3 Xrotation Yrotation Zrotation
                        JOINT lWrist
                        {
                            OFFSET   0.240000   0.000000   0.000000
                            CHANNELS 3 Xrotation Yrotation Zrotation
                            End Site
                            {
                                OFFSET   0.116353  -0.002500   0.000000
                            }
                        }
                    }
                }
            }
        }
    }
    JOINT rHip
    {
        OFFSET  -0.100000  -0.051395   0.000000
        CHANNELS 3 Xrotation Yrotation Zrotation
        JOINT rKnee
        {
            OFFSET   0.000000  -0.410000   0.000000
            CHANNELS 3 Xrotation Yrotation Zrotation
            JOINT rAnkle
            {
                OFFSET   0.000000  -0.390000   0.000000
                CHANNELS 3 Xrotation Yrotation Zrotation
                JOINT rToeJoint
                {
                    OFFSET   0.000000  -0.050000   0.130000
                    CHANNELS 3 Xrotation Yrotation Zrotation
                    End Site
                    {
                        OFFSET  -0.010000   0.002000   0.060000
                    }
                }
            }
        }
    }
    JOINT lHip
    {
        OFFSET   0.100000  -0.051395   0.000000
        CHANNELS 3 Xrotation Yrotation Zrotation
        JOINT lKnee
        {
            OFFSET   0.000000  -0.410000   0.000000
            CHANNELS 3 Xrotation Yrotation Zrotation
            JOINT lAnkle
            {
                OFFSET   0.000000  -0.390000   0.000000
                CHANNELS 3 Xrotation Yrotation Zrotation
                JOINT lToeJoint
                {
                    OFFSET   0.000000  -0.050000   0.130000
                    CHANNELS 3 Xrotation Yrotation Zrotation
                    End Site
                    {
                        OFFSET   0.010000   0.002000   0.060000
                    }
                }
            }
        }
    }
}
MOTION
Frames: 17
Frame Time:   0.008333
 -2.376719   0.925631   3.975860   0.000000   0.000000   0.000000   0.000000   0.000000   0.000000   0.000000   0.000000   0.000000   0.000000   0.000000   0.000000   0.000000   0.000000   0.000000   0.000000   0.000000   0.000000   0.000000   0.000000   0.000000   0.000000   0.000000   0.000000   0.000000   0.000000   0.000000   0.000000   0.000000   0.000000   0.000000   0.000000   0.000000   0.000000   0.000000   0.000000   0.000000   0.000000   0.000000   0.000000   0.000000   0.000000   0.000000   0.000000   0.000000   0.000000   0.000000   0.000000   0.000000   0.000000   0.000000   0.000000   0.000000   0.000000   0.000000   0.000000   0.000000   0.000000   0.000000   0.000000
 -2.376252   0.925592   3.975749   0.059352   0.082861   0.068449  -0.115666   0.017125  -0.039750   0.146708  -0.131573   0.125768  -0.039828  -0.032700  -0.048833  -0.055016  -0.330387   0.325613  -0.862786  -0.104586   0.721869   0.014970   1.442019   0.010264   0.253213  -0.298419  -1.718544   0.111006   0.226966  -0.379243   0.664538   0.105856  -1.358319   0.016564  -1.191928   0.009135   0.306084   0.281796   1.768808  -0.398251  -0.082536  -0.295662   0.890464   0.001761  -0.000020  -0.887457  -0.450264  -0.062681  -0.072648  -0.000183   0.000285  -0.362253   0.042207   0.038124   1.083344  -0.000998   0.001190  -1.183592   0.324896   0.040638   0.239874  -0.000307   0.000940
 -2.375634   0.925512   3.975786   0.068227   0.176652   0.151008  -0.226581   0.012139  -0.048421   0.315960  -0.287271   0.247435  -0.054187  -0.064608  -0.072161  -0.109907  -0.668021   1.036262  -1.676436  -0.201124   1.703022   0.034186   2.831840   0.017864   0.489650  -0.192045  -3.099866   0.225744   0.436925  -1.266017   1.290541   0.169052  -3.041133   0.037459  -2.340070   0.015520   0.641627   0.251416   2.998353  -0.781424  -0.165901  -0.766364   1.815982   0.004529  -0.000067  -1.716503  -0.878314  -0.131186  -0.175791  -0.000554   0.000605  -0.616418   0.092178   0.188483   2.230839  -0.003072   0.002475  -2.290077   0.633890   0.086177   0.409577  -0.000652   0.001422
 -2.374982   0.925126   3.975935   0.068007   0.267709   0.237248  -0.347518  -0.011978  -0.045401   0.469713  -0.453176   0.356589  -0.064612  -0.094570  -0.081695  -0.155418  -0.991778   1.992834  -2.434259  -0.309000   2.837241   0.052265   4.132012   0.023185   0.719815  -0.012342  -4.010537   0.337516   0.618159  -2.449988   1.875267   0.197884  -4.879442   0.057133  -3.417872   0.019387   0.966753   0.136681   3.650538  -1.167060  -0.241908  -1.357954   2.687818   0.007444  -0.000220  -2.489934  -1.279165  -0.202568  -0.271353  -0.000919   0.000810  -0.789446   0.141527   0.451229   3.339783  -0.005728   0.003555  -3.321327   0.923524   0.135171   0.564766  -0.001052   0.001723
 -2.374344   0.924251   3.976159   0.067877   0.350754   0.323332  -0.475551  -0.050859  -0.041876   0.602742  -0.624302   0.452144  -0.076067  -0.122685  -0.084999  -0.190088  -1.301756   3.092006  -3.137247  -0.432933   4.049205   0.066881   5.343019   0.026711   0.939316   0.158103  -4.554469   0.446731   0.775299  -3.794428   2.421746   0.196841  -6.774444   0.073293  -4.427062   0.021477   1.277447  -0.006955   3.885767  -1.560110  -0.308945  -2.036093   3.494846   0.010089  -0.000483  -3.212695  -1.653934  -0.275534  -0.362039  -0.001254   0.000940  -0.899998   0.188736   0.812833   4.395175  -0.008563   0.004414  -4.283570   1.194683   0.186808   0.705141  -0.001445   0.001876
 -2.373739   0.922756   3.976434   0.068966   0.423685   0.407494  -0.606468  -0.101103  -0.042515   0.717900  -0.797679   0.534278  -0.088802  -0.149082  -0.085766  -0.213682  -1.599081   4.259974  -3.787588  -0.573168   5.285058   0.077289   6.469280   0.028830   1.146563   0.301035  -4.843009   0.553402   0.912717  -5.210509   2.932220   0.170618  -8.663149   0.085209  -5.371229   0.022365   1.573451  -0.164147   3.844251  -1.959519  -0.366038  -2.775838   4.238940   0.012281  -0.000819  -3.888378  -2.003995  -0.349098  -0.447986  -0.001541   0.001015  -0.960069   0.233201   1.256323   5.395761  -0.011291   0.005078  -5.181646   1.448296   0.240282   0.832297  -0.001794   0.001922
 -2.373506   0.922340   3.976900   0.043070   0.314713   0.338606  -0.735645  -0.094342   0.034758   0.828844  -0.918047   0.659899  -0.098620  -0.171965  -0.080005  -0.227509  -1.864578   5.565193  -4.387301  -0.717614   6.564908   0.085140   7.519383   0.030099   1.344819   0.431178  -4.973209   0.661313   1.055501  -6.751352   3.410498   0.137298 -10.556094   0.094104  -6.248444   0.022397   1.853906  -0.302810   3.648218  -2.415972  -0.611123  -2.781597   5.208965   0.010181  -0.004061  -4.189436  -2.487289  -0.125819  -0.516174  -0.001155   0.001322  -0.907996   0.283073   1.927131   6.337315  -0.013911   0.004255  -6.015108   1.687742   0.296807   0.985095  -0.002306   0.001796
 -2.372864   0.921837   3.976964   0.121409   0.194256   0.318610  -0.794579  -0.100214   0.126910   0.823739  -1.055360   0.762268  -0.214087  -0.231887  -0.087834  -0.158405  -2.148857   6.578141  -4.900217  -0.822907   7.606637   0.092945   8.910079   0.031036   1.511044   0.296846  -4.476812   0.893973   1.191030  -7.813863   3.842092   0.078393 -12.557846   0.101738  -7.259320   0.024392   2.144580  -0.426096   2.771244  -3.045317  -0.756726  -2.854166   6.227178   0.008625  -0.006086  -4.343988  -2.924989  -0.013523  -0.571833  -0.000924   0.001412  -0.884475   0.493900   2.464102   6.701242  -0.012702   0.003939  -6.404488   1.986372   0.259739   1.194621  -0.002704   0.002171
 -2.371945   0.921303   3.976791   0.211722   0.133729   0.314054  -0.805571  -0.139731   0.230850   0.828828  -1.210653   0.858880  -0.329994  -0.291173  -0.091283  -0.094609  -2.389742   7.387155  -5.381430  -0.899890   8.479982   0.093773  10.227888   0.030465   1.684768   0.279654  -4.061566   1.105491   1.275057  -8.703410   4.238613  -0.018220 -14.362225   0.103333  -8.217574   0.025926   2.431212  -0.638932   1.890768  -3.665503  -0.884007  -2.958009   7.190658   0.007460  -0.006901  -4.489979  -3.329457   0.082464  -0.608789  -0.000748   0.001330  -0.920050   0.696248   2.924294   6.952343  -0.011101   0.003620  -6.770160   2.265837   0.226846   1.396900  -0.002879   0.002508
 -2.370818   0.920748   3.976478   0.299261   0.100113   0.317285  -0.780001  -0.188227   0.338038   0.855062  -1.368162   0.952642  -0.435390  -0.346915  -0.091182  -0.038037  -2.593588   8.046889  -5.834010  -0.958467   9.225165   0.090342  11.465885   0.028893   1.857614   0.317623  -3.789358   1.293665   1.319936  -9.455216   4.600005  -0.140821 -15.987923   0.100919  -9.121015   0.026875   2.707976  -0.898440   1.137880  -4.254342  -0.996142  -3.081416   8.090725   0.006572  -0.007095  -4.635293  -3.704748   0.167151  -0.641531  -0.000612   0.001222  -0.994544   0.886207   3.328094   7.156888  -0.009556   0.003295  -7.113336   2.526588   0.197744   1.577455  -0.002865   0.002689
 -2.369524   0.920177   3.976093   0.382512   0.073962   0.323868  -0.728386  -0.236173   0.445188   0.898235  -1.519078   1.044355  -0.530013  -0.398927  -0.089433   0.011555  -2.767659   8.593000  -6.259699  -1.003255   9.869631   0.084515  12.627110   0.026766   2.027088   0.387439  -3.633467   1.461570   1.340452 -10.093209   4.929497  -0.277206 -17.457278   0.095978  -9.969997   0.027227   2.973236  -1.181008   0.511071  -4.810213  -1.095794  -3.217565   8.929654   0.005883  -0.007005  -4.779087  -4.053579   0.242577  -0.671768  -0.000506   0.001111  -1.094211   1.063455   3.687491   7.331721  -0.008160   0.002962  -7.434562   2.769846   0.172018   1.740649  -0.002740   0.002737
 -2.368089   0.919593   3.975681   0.461638   0.046488   0.330691  -0.658865  -0.279881   0.551123   0.953371  -1.659505   1.134531  -0.615095  -0.447442  -0.087027   0.054922  -2.918305   9.050557  -6.659884  -1.038098  10.432984   0.077492  13.715106   0.024390   2.192075   0.477059  -3.564119   1.612644   1.347220 -10.637083   5.230664  -0.418454 -18.789794   0.089554 -10.765567   0.027035   3.226561  -1.470394  -0.010111  -5.333954  -1.184990  -3.361714   9.711595   0.005338  -0.006788  -4.919957  -4.378213   0.310265  -0.699868  -0.000423   0.001006  -1.209859   1.228173   4.010538   7.484212  -0.006930   0.002629  -7.734966   2.996749   0.149273   1.888911  -0.002554   0.002683
 -2.366530   0.918995   3.975275   0.536770   0.014607   0.335516  -0.577454  -0.318052   0.655465   1.016609  -1.788136   1.223532  -0.691907  -0.492720  -0.084403   0.093018  -3.050753   9.437913  -7.035769  -1.066139  10.929721   0.070037  14.733477   0.021959   2.351982   0.578109  -3.558490   1.749906   1.347188 -11.102971   5.506826  -0.558702 -20.002056   0.082379 -11.509497   0.026382   3.468171  -1.755708  -0.445394  -5.826602  -1.265205  -3.510458  10.441135   0.004900  -0.006512  -5.056740  -4.680563   0.371380  -0.726005  -0.000358   0.000908  -1.335193   1.380894   4.302900   7.618874  -0.005864   0.002308  -8.015770   3.208378   0.129149   2.023942  -0.002335   0.002558
 -2.364966   0.918338   3.974982   0.550298  -0.017284   0.260201  -0.486540  -0.318105   0.783036   1.136301  -1.847211   1.385031  -0.720992  -0.490512  -0.072376   0.174718  -3.263364   9.587270  -7.215079  -1.097510  11.339873   0.064340  16.183408   0.017807   2.444233   0.438383  -3.291624   1.907676   1.275777 -11.263929   5.749404  -0.808506 -21.223076   0.076550 -12.404826   0.026874   3.647825  -1.872571  -1.096607  -6.189355  -1.312660  -3.563855  11.081422   0.004433  -0.005900  -5.272486  -4.915898   0.399250  -0.684869  -0.000252   0.000604  -1.378027   1.620385   4.658136   7.620289  -0.004694   0.001850  -7.943491   3.363317   0.112741   2.193379  -0.002235   0.002607
 -2.363330   0.917661   3.974715   0.556281  -0.033134   0.168713  -0.399642  -0.313475   0.907061   1.251838  -1.899552   1.551866  -0.740163  -0.483649  -0.054812   0.241357  -3.441616   9.623884  -7.390541  -1.094674  11.653200   0.056885  17.561813   0.014449   2.548161   0.456539  -3.092575   2.036941   1.176878 -11.309569   5.959167  -1.070288 -22.291256   0.069491 -13.257020   0.026529   3.819318  -2.066587  -1.661906  -6.513705  -1.357945  -3.603249  11.672758   0.004047  -0.005249  -5.484935  -5.134939   0.424635  -0.653673  -0.000174   0.000401  -1.434444   1.846524   4.993713   7.607752  -0.003732   0.001452  -7.872397   3.508545   0.097365   2.376528  -0.002123   0.002682
 -2.361613   0.916981   3.974498   0.558087  -0.040590   0.072548  -0.317229  -0.305491   1.023001   1.356137  -1.945591   1.711729  -0.757156  -0.476717  -0.036856   0.292740  -3.587202   9.586934  -7.562536  -1.069804  11.895844   0.048892  18.858395   0.011826   2.653325   0.541956  -2.992960   2.145890   1.066647 -11.276949   6.143068  -1.327447 -23.231275   0.062025 -14.058090   0.025531   3.982919  -2.287972  -2.101224  -6.808100  -1.400361  -3.641579  12.223594   0.003732  -0.004632  -5.689836  -5.339247   0.447174  -0.625905  -0.000114   0.000254  -1.502321   2.057205   5.297497   7.588750  -0.002957   0.001122  -7.806196   3.644139   0.082826   2.545255  -0.001951   0.002673
 -2.359765   0.916793   3.974499   0.544828   0.019413   0.166868  -0.252189  -0.317046   0.977740   1.448109  -2.003875   1.797073  -0.771262  -0.470986  -0.024863   0.338496  -3.721232   9.547835  -7.725282  -1.042758  12.109778   0.041572  20.072223   0.009892   2.757446   0.653275  -2.966917   2.239302   0.951955 -11.205406   6.305755  -1.574086 -24.064081   0.054896 -14.805873   0.023896   4.140742  -2.501287  -2.418646  -6.972669  -1.420361  -3.881062  12.610176   0.003411  -0.003772  -5.978508  -5.517983   0.438232  -0.589108  -0.000047   0.000147  -1.629447   2.350858   5.135693   7.767703  -0.002176   0.001453  -7.570779   3.838171  -0.078190   2.697197  -0.001241   0.002867
